SplineFontDB: 3.0
FontName: v1
FullName: regular
FamilyName: scrambled
Weight: Regular
Copyright: 
Version: 
ItalicAngle: 0
UnderlinePosition: 0
UnderlineWidth: 0
Ascent: 819
Descent: 205
sfntRevision: 0x00010000
LayerCount: 2
Layer: 0 0 "Back"  1
Layer: 1 0 "Fore"  0
XUID: [1021 779 365046008 5299420]
FSType: 8
OS2Version: 3
OS2_WeightWidthSlopeOnly: 0
OS2_UseTypoMetrics: 1
CreationTime: 1402607768
ModificationTime: 1406843385
PfmFamily: 17
TTFWeight: 400
TTFWidth: 5
LineGap: 92
VLineGap: 0
Panose: 2 0 5 9 0 0 0 0 0 0
OS2TypoAscent: 819
OS2TypoAOffset: 0
OS2TypoDescent: -205
OS2TypoDOffset: 0
OS2TypoLinegap: 92
OS2WinAscent: 921
OS2WinAOffset: 0
OS2WinDescent: 100
OS2WinDOffset: 0
HheadAscent: 921
HheadAOffset: 0
HheadDescent: -100
HheadDOffset: 0
OS2SubXSize: 665
OS2SubYSize: 716
OS2SubXOff: 0
OS2SubYOff: 143
OS2SupXSize: 665
OS2SupYSize: 716
OS2SupXOff: 0
OS2SupYOff: 491
OS2StrikeYSize: 51
OS2StrikeYPos: 265
OS2Vendor: 'dies'
OS2CodePages: 00000001.00000000
OS2UnicodeRanges: 00000001.00000000.00000000.00000000
MarkAttachClasses: 1
DEI: 91125
LangName: 1033 "" "" "" "diesslin : regular : 12-6-2014" 
Encoding: UnicodeBmp
UnicodeInterp: none
NameList: Adobe Glyph List
DisplaySize: -96
AntiAlias: 1
FitToEm: 1
WinInfo: 0 13 6
BeginPrivate: 8
BlueValues 26 [-100 106 706 900 906 920]
BlueScale 10 0.00480583
BlueShift 2 14
StdHW 5 [200]
StdVW 5 [200]
StemSnapH 35 [40 50 75 80 95 99 100 101 200 220]
StemSnapV 35 [40 60 100 120 130 150 200 250 300]
ExpansionFactor 4 0.06
EndPrivate
BeginChars: 65536 41

StartChar: a
Encoding: 97 97 0
Width: 1024
GlyphClass: 2
Flags: W
LayerCount: 2
Fore
SplineSet
12 850 m 1
 12 650 l 1
 1012 650 l 1
 1012 850 l 1
 12 850 l 1
12 510 m 1
 12 310 l 1
 1012 310 l 1
 1012 510 l 1
 12 510 l 1
12 170 m 1
 12 -30 l 1
 1012 -30 l 1
 1012 170 l 1
 12 170 l 1
EndSplineSet
EndChar

StartChar: b
Encoding: 98 98 1
Width: 1024
GlyphClass: 2
Flags: W
LayerCount: 2
Fore
SplineSet
12 810 m 1
 12 610 l 1
 1012 610 l 1
 1012 810 l 1
 12 810 l 1
12 510 m 1
 12 310 l 1
 1012 310 l 1
 1012 510 l 1
 12 510 l 1
12 210 m 1
 12 10 l 1
 1012 10 l 1
 1012 210 l 1
 12 210 l 1
EndSplineSet
EndChar

StartChar: c
Encoding: 99 99 2
Width: 1024
GlyphClass: 2
Flags: MW
HStem: 690 20G<213 811 811 811>
LayerCount: 2
Fore
SplineSet
12 910 m 1
 12 -90 l 1
 1012 -90 l 1
 1012 910 l 1
 12 910 l 1
213 710 m 1
 811 710 l 1
 812 709 l 1
 812 561 l 1
 811 560 l 1
 213 560 l 1
 212 561 l 1
 212 709 l 1
 213 710 l 1
212 485 m 1
 812 485 l 1
 812 335 l 1
 212 335 l 1
 212 485 l 1
212 260 m 1
 812 260 l 1
 812 110 l 1
 212 110 l 1
 212 260 l 1
EndSplineSet
EndChar

StartChar: d
Encoding: 100 100 3
Width: 1024
GlyphClass: 2
Flags: W
LayerCount: 2
Fore
SplineSet
12 914 m 1
 12 714 l 1
 212 714 l 1
 212 914 l 1
 12 914 l 1
312 914 m 1
 312 714 l 1
 1012 714 l 1
 1012 914 l 1
 312 914 l 1
12 514 m 1
 12 314 l 1
 212 314 l 1
 212 514 l 1
 12 514 l 1
312 514 m 1
 312 314 l 1
 1012 314 l 1
 1012 514 l 1
 312 514 l 1
12 114 m 1
 12 -86 l 1
 212 -86 l 1
 212 114 l 1
 12 114 l 1
312 114 m 1
 312 -86 l 1
 1012 -86 l 1
 1012 114 l 1
 312 114 l 1
EndSplineSet
EndChar

StartChar: e
Encoding: 101 101 4
Width: 1024
GlyphClass: 2
Flags: MW
HStem: -89 200<112 912> 311 200<112 912> 711 200<112 912>
CounterMasks: 1 e0
LayerCount: 2
Fore
SplineSet
112 911 m 2
 57 911 12 866 12 811 c 0
 12 756 57 711 112 711 c 2
 912 711 l 2
 967 711 1012 756 1012 811 c 0
 1012 866 967 911 912 911 c 2
 112 911 l 2
112 511 m 2
 57 511 12 466 12 411 c 0
 12 356 57 311 112 311 c 2
 912 311 l 2
 967 311 1012 356 1012 411 c 0
 1012 466 967 511 912 511 c 2
 112 511 l 2
112 111 m 2
 57 111 12 66 12 11 c 0
 12 -44 57 -89 112 -89 c 2
 912 -89 l 2
 967 -89 1012 -44 1012 11 c 0
 1012 66 967 111 912 111 c 2
 112 111 l 2
EndSplineSet
EndChar

StartChar: f
Encoding: 102 102 5
Width: 1024
GlyphClass: 2
Flags: MW
HStem: 12 200<112 912> 312 200<112 912> 612 200<112 912>
CounterMasks: 1 e0
LayerCount: 2
Fore
SplineSet
112 812 m 2
 57 812 12 767 12 712 c 0
 12 657 57 612 112 612 c 2
 912 612 l 2
 967 612 1012 657 1012 712 c 0
 1012 767 967 812 912 812 c 2
 112 812 l 2
112 512 m 2
 57 512 12 467 12 412 c 0
 12 357 57 312 112 312 c 2
 912 312 l 2
 967 312 1012 357 1012 412 c 0
 1012 467 967 512 912 512 c 2
 112 512 l 2
112 212 m 2
 57 212 12 167 12 112 c 0
 12 57 57 12 112 12 c 2
 912 12 l 2
 967 12 1012 57 1012 112 c 0
 1012 167 967 212 912 212 c 2
 112 212 l 2
EndSplineSet
EndChar

StartChar: g
Encoding: 103 103 6
Width: 1024
GlyphClass: 2
Flags: MW
HStem: 260 75<275 725> 485 75<275 725> 690 20G<0 0 275 725 725 746 1000 1000>
VStem: 0 200<-90 110 164 206 389 431 614 656> 800 200<164 206 389 431 614 656>
LayerCount: 2
Fore
SplineSet
200 910 m 2
 89 910 0 821 0 710 c 2
 0 110 l 2
 0 -1 89 -90 200 -90 c 2
 800 -90 l 2
 911 -90 1000 -1 1000 110 c 2
 1000 710 l 2
 1000 821 911 910 800 910 c 2
 200 910 l 2
275 710 m 2
 725 710 l 2
 767 710 800 677 800 635 c 0
 800 593 767 560 725 560 c 2
 275 560 l 2
 233 560 200 593 200 635 c 0
 200 677 233 710 275 710 c 2
275 485 m 2
 725 485 l 2
 767 485 800 452 800 410 c 0
 800 368 767 335 725 335 c 2
 275 335 l 2
 233 335 200 368 200 410 c 0
 200 452 233 485 275 485 c 2
275 260 m 2
 725 260 l 2
 767 260 800 227 800 185 c 0
 800 143 767 110 725 110 c 2
 275 110 l 2
 233 110 200 143 200 185 c 0
 200 227 233 260 275 260 c 2
EndSplineSet
EndChar

StartChar: h
Encoding: 104 104 7
Width: 1024
GlyphClass: 2
Flags: MW
HStem: -91 200<84.5 139.5 412 912> 309 200<84.5 139.5 412 912> 709 200<84.5 139.5 412 912>
VStem: 12 200<-18.5 36.5 381.5 436.5 781.5 836.5>
CounterMasks: 1 e0
LayerCount: 2
Fore
SplineSet
112 909 m 0
 57 909 12 864 12 809 c 0
 12 754 57 709 112 709 c 0
 167 709 212 754 212 809 c 0
 212 864 167 909 112 909 c 0
412 909 m 2
 357 909 312 864 312 809 c 0
 312 754 357 709 412 709 c 2
 912 709 l 2
 967 709 1012 754 1012 809 c 0
 1012 864 967 909 912 909 c 2
 412 909 l 2
112 509 m 0
 57 509 12 464 12 409 c 0
 12 354 57 309 112 309 c 0
 167 309 212 354 212 409 c 0
 212 464 167 509 112 509 c 0
412 509 m 2
 357 509 312 464 312 409 c 0
 312 354 357 309 412 309 c 2
 912 309 l 2
 967 309 1012 354 1012 409 c 0
 1012 464 967 509 912 509 c 2
 412 509 l 2
112 109 m 0
 57 109 12 64 12 9 c 0
 12 -46 57 -91 112 -91 c 0
 167 -91 212 -46 212 9 c 0
 212 64 167 109 112 109 c 0
412 109 m 2
 357 109 312 64 312 9 c 0
 312 -46 357 -91 412 -91 c 2
 912 -91 l 2
 967 -91 1012 -46 1012 9 c 0
 1012 64 967 109 912 109 c 2
 412 109 l 2
EndSplineSet
EndChar

StartChar: i
Encoding: 105 105 8
Width: 1024
GlyphClass: 2
Flags: W
LayerCount: 2
Fore
SplineSet
229 835 m 1
 88 694 l 1
 371 411 l 1
 88 128 l 1
 229 -13 l 1
 512 270 l 1
 795 -13 l 1
 936 128 l 1
 653 411 l 1
 936 694 l 1
 795 835 l 1
 512 552 l 1
 229 835 l 1
EndSplineSet
EndChar

StartChar: j
Encoding: 106 106 9
Width: 1024
GlyphClass: 2
Flags: W
LayerCount: 2
Fore
SplineSet
229 794 m 0
 204 794 178 784 158 765 c 1
 119 725 119 662 158 623 c 2
 371 411 l 1
 158 199 l 2
 119 160 119 97 158 57 c 1
 198 18 261 18 300 57 c 2
 512 270 l 1
 724 57 l 2
 763 18 826 18 866 57 c 1
 905 97 905 160 866 199 c 2
 653 411 l 1
 866 623 l 2
 905 662 905 725 866 765 c 1
 826 804 763 804 724 765 c 2
 512 552 l 1
 300 765 l 2
 280 784 255 794 229 794 c 0
EndSplineSet
EndChar

StartChar: k
Encoding: 107 107 10
Width: 1024
GlyphClass: 2
Flags: W
LayerCount: 2
Fore
SplineSet
412 920 m 1
 412 520 l 1
 12 520 l 1
 12 320 l 1
 412 320 l 1
 412 -80 l 1
 612 -80 l 1
 612 320 l 1
 1012 320 l 1
 1012 520 l 1
 612 520 l 1
 612 920 l 1
 412 920 l 1
EndSplineSet
EndChar

StartChar: l
Encoding: 108 108 11
Width: 1024
GlyphClass: 2
Flags: MW
HStem: 309 200<112 412 612 912>
VStem: 412 200<-18.5 309 9 309 509 809>
LayerCount: 2
Fore
SplineSet
512 909 m 0
 457 909 412 864 412 809 c 2
 412 509 l 1
 112 509 l 2
 57 509 12 464 12 409 c 0
 12 354 57 309 112 309 c 2
 412 309 l 1
 412 9 l 2
 412 -46 457 -91 512 -91 c 0
 567 -91 612 -46 612 9 c 2
 612 309 l 1
 912 309 l 2
 967 309 1012 354 1012 409 c 0
 1012 464 967 509 912 509 c 2
 612 509 l 1
 612 809 l 2
 612 864 567 909 512 909 c 0
EndSplineSet
EndChar

StartChar: m
Encoding: 109 109 12
Width: 1024
GlyphClass: 2
Flags: W
LayerCount: 2
Fore
SplineSet
500 919 m 0
 492 919 483 918 475 916 c 0
 473 915 472 915 470 915 c 0
 468 914 466 913 465 913 c 0
 464 913 464 912 464 912 c 1
 463 912 l 1
 463 912 463 912 462 912 c 2
 461 911 l 2
 460 911 460 911 459 910 c 1
 459 910 l 1
 458 910 458 910 458 910 c 1
 446 904 435 896 426 886 c 2
 146 607 l 2
 107 568 107 505 146 465 c 1
 186 426 249 426 288 465 c 2
 400 578 l 1
 400 519 l 1
 400 19 l 2
 400 -36 445 -81 500 -81 c 0
 555 -81 600 -36 600 19 c 2
 600 519 l 1
 600 578 l 1
 712 465 l 2
 751 426 814 426 854 465 c 1
 893 505 893 568 854 607 c 2
 574 886 l 2
 565 896 554 904 542 910 c 1
 542 910 542 910 541 910 c 1
 541 910 l 1
 540 911 540 911 539 911 c 0
 538 912 537 912 535 913 c 0
 534 913 532 914 530 915 c 0
 528 915 527 915 525 916 c 0
 517 918 508 919 500 919 c 0
EndSplineSet
EndChar

StartChar: n
Encoding: 110 110 13
Width: 1024
GlyphClass: 2
Flags: W
LayerCount: 2
Fore
SplineSet
512 912 m 0
 457 912 412 867 412 812 c 2
 412 312 l 1
 412 254 l 1
 300 366 l 2
 261 405 198 405 158 366 c 1
 119 326 119 263 158 224 c 2
 438 -55 l 2
 446 -64 456 -72 467 -77 c 0
 468 -78 468 -78 468 -78 c 2
 469 -78 469 -78 469 -78 c 1
 469 -78 l 1
 470 -79 l 1
 471 -79 l 2
 472 -79 472 -80 473 -80 c 0
 474 -80 474 -81 475 -81 c 1
 475 -81 l 1
 476 -81 476 -81 477 -82 c 1
 477 -82 477 -82 478 -82 c 1
 478 -82 l 1
 479 -82 481 -83 482 -83 c 0
 484 -84 485 -84 487 -85 c 0
 503 -89 521 -89 537 -85 c 0
 539 -84 540 -84 542 -83 c 0
 543 -83 545 -82 546 -82 c 1
 546 -82 l 1
 547 -82 548 -81 549 -81 c 2
 549 -81 549 -81 550 -81 c 1
 550 -80 551 -80 551 -80 c 2
 552 -80 552 -79 553 -79 c 0
 554 -79 554 -79 555 -78 c 1
 555 -78 l 1
 555 -78 l 1
 556 -78 557 -77 558 -77 c 1
 558 -77 l 1
 560 -76 562 -75 564 -73 c 0
 572 -68 580 -62 586 -55 c 2
 866 224 l 2
 905 263 905 326 866 366 c 1
 826 405 763 405 724 366 c 2
 612 254 l 1
 612 312 l 1
 612 812 l 2
 612 867 567 912 512 912 c 0
EndSplineSet
EndChar

StartChar: o
Encoding: 111 111 14
Width: 1024
GlyphClass: 2
Flags: MW
HStem: 308 200<87.5 615 115 615 615 674>
LayerCount: 2
Fore
SplineSet
561 762 m 1
 594 794 655 809 703 762 c 1
 766 698 982 482 982 482 c 2
 990 475 997 467 1002 458 c 0
 1002 457 1003 456 1003 456 c 2
 1003 455 1003 455 1004 454 c 0
 1005 452 1006 450 1007 447 c 1
 1007 447 1007 446 1008 446 c 1
 1008 445 1008 445 1008 445 c 2
 1008 444 1009 443 1009 442 c 2
 1009 442 1009 441 1010 440 c 0
 1010 439 1010 439 1010 438 c 0
 1011 437 1011 436 1011 435 c 0
 1016 418 1016 399 1011 381 c 1
 1011 381 l 1
 1011 381 l 1
 1011 380 1011 379 1010 378 c 0
 1010 377 1010 377 1010 376 c 0
 1009 375 1009 374 1009 374 c 2
 1009 373 1008 372 1008 371 c 2
 1008 371 1008 371 1008 370 c 1
 1008 370 1008 370 1007 370 c 1
 1007 369 l 1
 1007 368 l 1
 1007 368 l 1
 1006 367 l 2
 1006 366 1005 365 1005 365 c 2
 1005 364 1005 364 1005 364 c 1
 1004 363 1004 363 1004 362 c 1
 1004 362 l 1
 1003 361 1003 361 1003 360 c 2
 1003 360 1003 360 1002 359 c 0
 997 350 990 341 982 334 c 2
 703 54 l 2
 664 15 601 15 561 54 c 1
 522 94 522 157 561 196 c 2
 674 308 l 1
 615 308 l 1
 115 308 l 2
 60 308 15 353 15 408 c 0
 15 463 60 508 115 508 c 2
 615 508 l 1
 674 508 l 1
 561 620 l 2
 522 659 522 722 561 762 c 1
EndSplineSet
EndChar

StartChar: p
Encoding: 112 112 15
Width: 1024
GlyphClass: 2
Flags: MW
HStem: 303 200<351 410 351 410 410 910>
LayerCount: 2
Fore
SplineSet
322 757 m 2
 357 792 415 805 464 757 c 1
 514 706 503 654 464 615 c 2
 351 503 l 1
 410 503 l 1
 910 503 l 2
 965 503 1010 458 1010 403 c 0
 1010 348 965 303 910 303 c 2
 410 303 l 1
 351 303 l 1
 464 191 l 2
 503 152 503 89 464 50 c 0
 424 10 361 10 322 50 c 2
 43 329 l 2
 35 336 28 345 23 354 c 0
 22 355 22 355 22 355 c 2
 22 356 22 356 21 357 c 1
 21 357 l 1
 21 358 21 358 20 359 c 1
 20 359 20 359 20 360 c 0
 19 361 19 362 18 363 c 1
 18 363 l 1
 18 364 18 364 18 365 c 1
 17 365 17 366 17 366 c 2
 17 367 16 368 16 369 c 2
 16 369 16 370 15 371 c 0
 15 372 15 372 15 373 c 0
 14 374 14 375 14 376 c 1
 14 376 l 1
 9 394 9 413 14 430 c 0
 14 431 14 432 15 433 c 0
 15 434 15 434 15 435 c 0
 16 436 16 437 16 438 c 2
 16 438 17 439 17 440 c 2
 17 440 17 440 17 441 c 1
 17 441 l 1
 17 441 17 441 18 441 c 0
 19 444 20 447 21 450 c 0
 22 450 22 450 22 451 c 0
 27 461 35 469 43 477 c 2
 322 757 l 2
EndSplineSet
EndChar

StartChar: q
Encoding: 113 113 16
Width: 1024
GlyphClass: 2
Flags: W
LayerCount: 2
Fore
SplineSet
512 698 m 0
 486 698 461 688 441 668 c 2
 441 668 440 667 439 666 c 2
 52 279 l 2
 13 240 13 177 52 138 c 0
 92 99 155 99 194 138 c 2
 512 456 l 1
 830 138 l 2
 869 99 932 99 972 138 c 0
 1011 177 1011 240 972 279 c 2
 585 666 l 2
 584 667 583 668 583 668 c 2
 563 688 538 698 512 698 c 0
EndSplineSet
EndChar

StartChar: r
Encoding: 114 114 17
Width: 1024
GlyphClass: 2
Flags: W
LayerCount: 2
Fore
SplineSet
52 669 m 0
 83 700 149 714 194 669 c 2
 512 351 l 1
 830 669 l 2
 869 708 932 708 972 669 c 0
 1011 630 1011 567 972 528 c 2
 583 139 l 2
 564 120 539 110 514 109 c 1
 488 109 461 119 441 139 c 2
 52 528 l 2
 13 567 13 630 52 669 c 0
EndSplineSet
EndChar

StartChar: s
Encoding: 115 115 18
Width: 1024
GlyphClass: 2
Flags: W
LayerCount: 2
Fore
SplineSet
246 874 m 0
 270 898 332 929 387 874 c 0
 442 818 774 486 774 486 c 2
 775 486 776 485 776 485 c 1
 815 446 815 384 778 345 c 0
 777 344 777 344 776 343 c 2
 776 343 775 342 774 341 c 2
 387 -46 l 2
 348 -85 285 -85 246 -46 c 0
 207 -6 207 57 246 96 c 2
 564 414 l 1
 246 732 l 2
 207 771 207 834 246 874 c 0
EndSplineSet
EndChar

StartChar: t
Encoding: 116 116 19
Width: 1024
GlyphClass: 2
Flags: W
LayerCount: 2
Fore
SplineSet
636 877 m 2
 671 912 734 920 777 877 c 0
 827 827 816 774 777 735 c 2
 459 417 l 1
 777 99 l 2
 816 60 816 -3 777 -43 c 0
 738 -82 675 -82 636 -43 c 2
 249 344 l 2
 248 345 247 346 247 346 c 2
 208 385 208 448 247 488 c 1
 247 488 248 489 249 489 c 2
 636 877 l 2
EndSplineSet
EndChar

StartChar: u
Encoding: 117 117 20
Width: 1024
GlyphClass: 2
Flags: MW
HStem: 690 20G<207 817 817 817>
LayerCount: 2
Fore
SplineSet
57 810 m 2
 32 810 12 790 12 765 c 2
 12 761 l 2
 12 760 12 760 12 759 c 2
 12 60 l 1
 12 55 l 2
 12 30 32 10 57 10 c 2
 62 10 l 1
 67 10 l 1
 957 10 l 1
 962 10 l 1
 967 10 l 2
 992 10 1012 30 1012 55 c 2
 1012 60 l 1
 1012 759 l 2
 1012 760 1012 760 1012 761 c 2
 1012 765 l 2
 1012 790 992 810 967 810 c 2
 962 810 l 1
 67 810 l 1
 57 810 l 2
207 710 m 1
 817 710 l 1
 512 472 l 1
 207 710 l 1
912 658 m 1
 912 110 l 1
 112 110 l 1
 112 658 l 1
 471 378 l 1
 482 368 499 364 512 364 c 0
 528 365 541 367 552 378 c 1
 912 658 l 1
EndSplineSet
EndChar

StartChar: v
Encoding: 118 118 21
Width: 1024
GlyphClass: 2
Flags: MW
HStem: 61 50<285 739> 151 50<285 739> 241 50<285 739> 791 20G<212 512 512 512 612 612> 791 20G<212 512 512 512 612 612>
LayerCount: 2
Fore
SplineSet
161 911 m 2xe0
 134 911 112 889 112 862 c 2
 112 861 l 1
 112 860 l 1
 112 -39 l 2
 112 -67 134 -89 162 -89 c 2
 862 -89 l 2
 863 -89 864 -89 865 -89 c 0
 891 -88 912 -66 912 -39 c 2
 912 511 l 1
 912 611 l 1
 612 911 l 1
 512 911 l 1
 162 911 l 1
 161 911 l 2xe0
212 811 m 1xf0
 512 811 l 1
 512 562 l 1
 512 561 l 1
 512 560 l 2
 512 533 534 511 561 511 c 2
 562 511 l 1
 812 511 l 1
 812 11 l 1
 212 11 l 1
 212 811 l 1xf0
612 811 m 1
 812 611 l 1
 612 611 l 1
 612 811 l 1
285 291 m 2
 272 291 262 281 262 268 c 2
 262 264 l 2
 262 251 272 241 285 241 c 2
 739 241 l 2
 752 241 762 251 762 264 c 2
 762 268 l 2
 762 281 752 291 739 291 c 2
 285 291 l 2
285 201 m 2
 272 201 262 191 262 178 c 2
 262 174 l 2
 262 161 272 151 285 151 c 2
 739 151 l 2
 752 151 762 161 762 174 c 2
 762 178 l 2
 762 191 752 201 739 201 c 2
 285 201 l 2
285 111 m 2
 272 111 262 101 262 88 c 2
 262 84 l 2
 262 71 272 61 285 61 c 2
 739 61 l 2
 752 61 762 71 762 84 c 2
 762 88 l 2
 762 101 752 111 739 111 c 2
 285 111 l 2
EndSplineSet
EndChar

StartChar: w
Encoding: 119 119 22
Width: 1024
GlyphClass: 2
Flags: MW
HStem: 693 20G<507 507>
LayerCount: 2
Fore
SplineSet
541 820 m 2
 532 829 519 834 507 834 c 0
 494 834 482 829 472 820 c 2
 133 478 l 1
 125 473 120 466 116 457 c 0
 111 445 111 431 116 419 c 0
 121 406 131 396 144 392 c 1
 152 388 161 387 170 388 c 1
 213 388 l 1
 213 38 l 2
 213 10 235 -12 263 -12 c 2
 763 -12 l 2
 791 -12 813 10 813 38 c 2
 813 388 l 1
 856 388 l 1
 865 387 874 388 882 392 c 1
 894 396 903 405 908 416 c 0
 918 435 915 457 900 473 c 1
 543 818 l 1
 541 820 l 2
507 713 m 1
 739 488 l 1
 283 488 l 1
 507 713 l 1
313 388 m 1
 713 388 l 1
 713 88 l 1
 613 88 l 1
 613 263 l 2
 613 277 602 288 588 288 c 2
 438 288 l 2
 424 288 413 277 413 263 c 2
 413 88 l 1
 313 88 l 1
 313 388 l 1
EndSplineSet
EndChar

StartChar: x
Encoding: 120 120 23
Width: 1024
GlyphClass: 2
Flags: MW
HStem: 10 200<480.5 543.5> 610 200<480.5 543.5 480.5 567>
VStem: 112 200<378.5 441.5> 712 200<378.5 441.5 378.5 465>
LayerCount: 2
Fore
SplineSet
356 885 m 1
 338 879 321 873 304 865 c 1
 309 847 312 829 312 810 c 0
 312 700 222 610 112 610 c 0
 93 610 75 613 57 618 c 1
 49 601 43 584 37 566 c 1
 83 530 112 473 112 410 c 0
 112 347 83 290 37 254 c 1
 44 233 52 213 61 194 c 1
 77 198 94 200 112 200 c 0
 222 200 312 110 312 0 c 0
 312 -16 310 -31 307 -46 c 1
 323 -53 339 -60 356 -65 c 1
 392 -19 449 10 512 10 c 0
 575 10 632 -19 668 -65 c 1
 685 -60 701 -53 717 -46 c 1
 714 -31 712 -16 712 0 c 0
 712 110 802 200 912 200 c 0
 930 200 947 198 963 194 c 1
 972 213 980 233 987 254 c 1
 941 290 912 347 912 410 c 0
 912 473 941 530 987 566 c 1
 981 584 975 601 967 618 c 1
 949 613 931 610 912 610 c 0
 802 610 712 700 712 810 c 0
 712 829 715 847 720 865 c 1
 703 873 686 879 668 885 c 1
 632 839 575 810 512 810 c 0
 449 810 392 839 356 885 c 1
512 610 m 0
 622 610 712 520 712 410 c 0
 712 300 622 210 512 210 c 0
 402 210 312 300 312 410 c 0
 312 520 402 610 512 610 c 0
EndSplineSet
EndChar

StartChar: y
Encoding: 121 121 24
Width: 1024
GlyphClass: 2
Flags: W
LayerCount: 2
Fore
SplineSet
112 809 m 2
 57 809 12 764 12 709 c 2
 12 309 l 2
 12 254 57 209 112 209 c 2
 412 209 l 2
 467 209 512 164 512 109 c 2
 512 34 l 2
 512 30 513 27 514 23 c 1
 514 23 l 1
 515 23 515 23 515 23 c 1
 515 22 515 22 515 22 c 1
 515 22 l 1
 515 22 515 21 516 21 c 0
 517 19 518 17 520 16 c 0
 529 6 545 6 555 16 c 2
 747 209 l 1
 912 209 l 2
 967 209 1012 254 1012 309 c 2
 1012 709 l 2
 1012 764 967 809 912 809 c 2
 112 809 l 2
EndSplineSet
EndChar

StartChar: z
Encoding: 122 122 25
Width: 1024
GlyphClass: 2
Flags: W
LayerCount: 2
Fore
SplineSet
57 758 m 2
 32 758 12 738 12 713 c 2
 12 708 l 1
 12 103 l 2
 12 78 32 58 57 58 c 2
 67 58 l 1
 962 58 l 2
 963 58 964 58 965 58 c 0
 977 59 989 64 997 73 c 0
 1006 82 1012 94 1012 108 c 2
 1012 708 l 2
 1012 736 990 758 962 758 c 2
 67 758 l 1
 62 758 l 1
 57 758 l 2
112 658 m 1
 301 658 l 1
 112 331 l 1
 112 658 l 1
427 658 m 1
 912 658 l 1
 912 575 l 1
 708 640 l 2
 704 641 700 642 695 642 c 2
 694 642 l 1
 693 642 l 2
 681 642 670 637 661 629 c 2
 556 525 l 1
 427 658 l 1
368 575 m 1
 773 158 l 1
 128 158 l 1
 368 575 l 1
709 535 m 1
 912 470 l 1
 912 159 l 1
 626 453 l 1
 709 535 l 1
EndSplineSet
EndChar

StartChar: A
Encoding: 65 65 26
Width: 1024
GlyphClass: 2
Flags: MW
HStem: 711 20G<112 912 912 912>
LayerCount: 2
Fore
SplineSet
57 831 m 2
 32 831 12 811 12 786 c 2
 12 781 l 1
 12 176 l 2
 12 151 32 131 57 131 c 2
 67 131 l 1
 382 131 l 2
 343 131 312 100 312 61 c 2
 312 -9 l 1
 712 -9 l 1
 712 61 l 2
 712 100 681 131 642 131 c 2
 962 131 l 2
 963 131 964 131 965 131 c 0
 991 132 1012 154 1012 181 c 2
 1012 781 l 2
 1012 809 990 831 962 831 c 2
 67 831 l 1
 62 831 l 1
 57 831 l 2
112 731 m 1
 912 731 l 1
 912 231 l 1
 112 231 l 1
 112 731 l 1
EndSplineSet
EndChar

StartChar: B
Encoding: 66 66 27
Width: 1024
GlyphClass: 2
Flags: MW
HStem: 164 96<100 112 86.5 119 86.5 119 912 924>
LayerCount: 2
Fore
SplineSet
162 660 m 2
 134 660 112 638 112 610 c 2
 112 260 l 1
 100 260 l 2
 73 260 52 239 52 212 c 0
 52 186 73 164 100 164 c 2
 119 164 l 1
 128 150 144 140 162 140 c 2
 862 140 l 2
 880 140 896 150 905 164 c 1
 924 164 l 2
 951 164 972 186 972 212 c 0
 972 239 951 260 924 260 c 2
 912 260 l 1
 912 610 l 2
 912 638 890 660 862 660 c 2
 162 660 l 2
212 560 m 1
 812 560 l 1
 812 260 l 1
 212 260 l 1
 212 560 l 1
EndSplineSet
EndChar

StartChar: C
Encoding: 67 67 28
Width: 1024
GlyphClass: 2
Flags: MW
HStem: -79 50<498 526> 71 50<498 526> 801 20G<212 812 812 812> 801 20G<212 812 812 812>
LayerCount: 2
Fore
SplineSet
162 921 m 2xc0
 134 921 112 899 112 871 c 2
 112 61 l 1
 112 -29 l 2
 112 -57 134 -79 162 -79 c 2
 862 -79 l 2
 890 -79 912 -57 912 -29 c 2
 912 61 l 1
 912 71 l 1
 912 871 l 2
 912 899 890 921 862 921 c 2
 162 921 l 2xc0
212 821 m 1xe0
 812 821 l 1
 812 121 l 1
 212 121 l 1
 212 821 l 1xe0
512 71 m 0
 540 71 562 49 562 21 c 0
 562 -7 540 -29 512 -29 c 0
 484 -29 462 -7 462 21 c 0
 462 49 484 71 512 71 c 0
EndSplineSet
EndChar

StartChar: D
Encoding: 68 68 29
Width: 1024
GlyphClass: 2
Flags: MW
HStem: -80 50<498 526> 70 50<498 526> 800 20G<312 712 712 712> 800 20G<312 712 712 712>
VStem: 562 250<6 34>
LayerCount: 2
Fore
SplineSet
262 920 m 2xc8
 234 920 212 898 212 870 c 2
 212 60 l 1
 212 -30 l 2
 212 -58 234 -80 262 -80 c 2
 762 -80 l 2
 790 -80 812 -58 812 -30 c 2
 812 60 l 1
 812 70 l 1
 812 870 l 2
 812 898 790 920 762 920 c 2
 262 920 l 2xc8
312 820 m 1xe8
 712 820 l 1
 712 120 l 1
 312 120 l 1
 312 820 l 1xe8
512 70 m 0
 540 70 562 48 562 20 c 0
 562 -8 540 -30 512 -30 c 0
 484 -30 462 -8 462 20 c 0
 462 48 484 70 512 70 c 0
EndSplineSet
EndChar

StartChar: E
Encoding: 69 69 30
Width: 1024
GlyphClass: 2
Flags: MW
HStem: 95 100<257 367 257 962> 245 300<270.5 353.5> 595 100<312 367> 655 40<797 947 947 954>
VStem: 12 100<340 450 340 645> 162 300<353.5 436.5> 972 40<573 580 580 630>
LayerCount: 2
Fore
SplineSet
137 745 m 2xee
 123 745 112 734 112 720 c 2
 112 695 l 1
 62 695 l 2
 34 695 12 673 12 645 c 2
 12 145 l 2
 12 117 34 95 62 95 c 2
 962 95 l 2
 990 95 1012 117 1012 145 c 2
 1012 645 l 2
 1012 673 990 695 962 695 c 2xde
 312 695 l 1
 312 720 l 2
 312 734 301 745 287 745 c 2
 137 745 l 2xee
797 655 m 2
 947 655 l 2
 961 655 972 644 972 630 c 2
 972 580 l 2
 972 566 961 555 947 555 c 2
 797 555 l 2
 783 555 772 566 772 580 c 2
 772 630 l 2
 772 644 783 655 797 655 c 2
312 595 m 0xee
 422 595 512 505 512 395 c 0
 512 285 422 195 312 195 c 0
 202 195 112 285 112 395 c 0
 112 505 202 595 312 595 c 0xee
312 545 m 0
 229 545 162 478 162 395 c 0
 162 312 229 245 312 245 c 0
 395 245 462 312 462 395 c 0
 462 478 395 545 312 545 c 0
EndSplineSet
EndChar

StartChar: F
Encoding: 70 70 31
Width: 1024
GlyphClass: 2
Flags: MW
HStem: 306 220<216 278 206.5 287.5 456 518 696 758> 716 21G<48 62 62 902 902 907 907 912>
VStem: 182 131 422 131 662 131 862 150<266 566 566 580 266 616 216 566>
LayerCount: 2
Fore
SplineSet
62 716 m 2
 34 716 12 694 12 666 c 2
 12 166 l 1
 12 162 l 2
 12 136 32 116 58 116 c 2
 906 116 l 2
 907 116 908 116 909 116 c 0
 910 116 911 116 912 116 c 0
 940 116 962 138 962 166 c 2
 962 216 l 1
 990 216 1012 238 1012 266 c 2
 1012 566 l 2
 1012 594 990 616 962 616 c 1
 962 666 l 2
 962 694 940 716 912 716 c 0
 910 716 909 716 907 716 c 0
 905 716 904 716 902 716 c 2
 62 716 l 2
112 616 m 1
 862 616 l 1
 862 216 l 1
 112 216 l 1
 112 616 l 1
216 526 m 2
 197 526 182 511 182 492 c 2
 182 340 l 2
 182 321 197 306 216 306 c 2
 278 306 l 2
 297 306 312 321 312 340 c 2
 312 492 l 2
 312 511 297 526 278 526 c 2
 216 526 l 2
696 526 m 2
 677 526 662 511 662 492 c 2
 662 340 l 2
 662 321 677 306 696 306 c 2
 758 306 l 2
 777 306 792 321 792 340 c 2
 792 492 l 2
 792 511 777 526 758 526 c 2
 696 526 l 2
456 526 m 2
 437 526 422 511 422 492 c 2
 422 340 l 2
 422 321 437 306 456 306 c 2
 518 306 l 2
 537 306 552 321 552 340 c 2
 552 492 l 2
 552 511 537 526 518 526 c 2
 456 526 l 2
EndSplineSet
EndChar

StartChar: G
Encoding: 71 71 32
Width: 1024
GlyphClass: 2
Flags: MW
HStem: 300 220<216 278 206.5 287.5 456 518> 710 21G<48 62 62 902 902 907 907 912>
VStem: 182 131 422 131 862 150<260 560 560 574 260 610 210 560>
LayerCount: 2
Fore
SplineSet
62 710 m 2
 34 710 12 688 12 660 c 2
 12 164 l 1
 12 160 l 1
 12 156 l 2
 12 130 32 110 58 110 c 2
 62 110 l 1
 906 110 l 2
 907 110 908 110 909 110 c 0
 910 110 911 110 912 110 c 0
 940 110 962 132 962 160 c 2
 962 210 l 1
 990 210 1012 232 1012 260 c 2
 1012 560 l 2
 1012 588 990 610 962 610 c 1
 962 660 l 2
 962 688 940 710 912 710 c 0
 910 710 909 710 907 710 c 0
 905 710 904 710 902 710 c 2
 62 710 l 2
112 610 m 1
 862 610 l 1
 862 210 l 1
 112 210 l 1
 112 610 l 1
216 520 m 2
 197 520 182 505 182 486 c 2
 182 334 l 2
 182 315 197 300 216 300 c 2
 278 300 l 2
 297 300 312 315 312 334 c 2
 312 486 l 2
 312 505 297 520 278 520 c 2
 216 520 l 2
456 520 m 2
 437 520 422 505 422 486 c 2
 422 334 l 2
 422 315 437 300 456 300 c 2
 518 300 l 2
 537 300 552 315 552 334 c 2
 552 486 l 2
 552 505 537 520 518 520 c 2
 456 520 l 2
EndSplineSet
EndChar

StartChar: H
Encoding: 72 72 33
Width: 1024
GlyphClass: 2
Flags: MW
HStem: 713 21G<48 62 62 902 902 907 907 912>
VStem: 182 131 862 150<263 563 563 577 263 613 213 563>
LayerCount: 2
Fore
SplineSet
62 713 m 2
 34 713 12 691 12 663 c 2
 12 167 l 1
 12 163 l 1
 12 159 l 2
 12 133 32 113 58 113 c 2
 62 113 l 1
 906 113 l 2
 907 113 908 113 909 113 c 0
 910 113 911 113 912 113 c 0
 940 113 962 135 962 163 c 2
 962 213 l 1
 990 213 1012 235 1012 263 c 2
 1012 563 l 2
 1012 591 990 613 962 613 c 1
 962 663 l 2
 962 691 940 713 912 713 c 0
 910 713 909 713 907 713 c 0
 905 713 904 713 902 713 c 2
 62 713 l 2
112 613 m 1
 862 613 l 1
 862 213 l 1
 112 213 l 1
 112 613 l 1
216 523 m 2
 197 523 182 508 182 489 c 2
 182 337 l 2
 182 318 197 303 216 303 c 2
 278 303 l 2
 297 303 312 318 312 337 c 2
 312 489 l 2
 312 508 297 523 278 523 c 2
 216 523 l 2
EndSplineSet
EndChar

StartChar: I
Encoding: 73 73 34
Width: 1024
GlyphClass: 2
Flags: MW
VStem: 862 150<257 557 557 571 257 607 207 557>
LayerCount: 2
Fore
SplineSet
62 707 m 0
 34 707 12 685 12 657 c 2
 12 153 l 2
 12 127 32 107 58 107 c 0
 356 107 657 107 912 107 c 0
 940 107 962 129 962 157 c 2
 962 207 l 1
 990 207 1012 229 1012 257 c 2
 1012 557 l 2
 1012 585 990 607 962 607 c 1
 962 657 l 2
 962 685 940 707 912 707 c 0
 629 707 345 707 62 707 c 0
112 607 m 1
 862 607 l 1
 862 207 l 1
 112 207 l 1
 112 607 l 1
EndSplineSet
EndChar

StartChar: J
Encoding: 74 74 35
Width: 1024
GlyphClass: 2
Flags: MW
HStem: 719 21G<312 412 412 412 472 552 552 552 612 712 712 712> 769 21G<312 712 312 312> 769 21G<312 712 312 312> 799 20G<312 712 712 712>
VStem: 412 60<570.5 719 579 719> 552 60<420.5 719 429 719>
LayerCount: 2
Fore
SplineSet
262 919 m 2x0c
 234 919 212 897 212 869 c 2
 212 198 l 1
 300 109 390 22 478 -68 c 1
 497 -86 527 -86 546 -68 c 0
 635 21 723 110 812 199 c 1
 812 869 l 2
 812 897 790 919 762 919 c 2
 262 919 l 2x0c
312 819 m 1x5c
 712 819 l 1
 712 769 l 1
 312 769 l 1
 312 819 l 1x5c
312 719 m 1x8c
 412 719 l 1
 412 579 l 2
 412 562 425 549 442 549 c 0
 459 549 472 562 472 579 c 2
 472 719 l 1
 552 719 l 1
 552 429 l 2
 552 412 565 399 582 399 c 0
 599 399 612 412 612 429 c 2
 612 719 l 1
 712 719 l 1
 712 289 l 1
 312 289 l 1
 312 719 l 1x8c
313 239 m 1
 711 239 l 1
 591 119 l 1
 433 119 l 1
 313 239 l 1
EndSplineSet
EndChar

StartChar: K
Encoding: 75 75 36
Width: 1024
GlyphClass: 2
Flags: MW
HStem: 500 80<284.5 339.5 684.5 739.5> 620 280<295.5 328.5 695.5 728.5>
VStem: 252 120<663.5 840 680 840> 652 120<663.5 840 680 840>
LayerCount: 2
Fore
SplineSet
312 900 m 0
 279 900 252 873 252 840 c 2
 252 680 l 2
 252 647 279 620 312 620 c 0
 345 620 372 647 372 680 c 2
 372 840 l 2
 372 873 345 900 312 900 c 0
712 900 m 0
 679 900 652 873 652 840 c 2
 652 680 l 2
 652 647 679 620 712 620 c 0
 745 620 772 647 772 680 c 2
 772 840 l 2
 772 873 745 900 712 900 c 0
62 800 m 2
 34 800 12 778 12 750 c 2
 12 -50 l 2
 12 -78 34 -100 62 -100 c 2
 962 -100 l 2
 990 -100 1012 -78 1012 -50 c 2
 1012 750 l 2
 1012 778 990 800 962 800 c 2
 812 800 l 1
 812 680 l 2
 812 625 767 580 712 580 c 0
 657 580 612 625 612 680 c 2
 612 800 l 1
 412 800 l 1
 412 680 l 2
 412 625 367 580 312 580 c 0
 257 580 212 625 212 680 c 2
 212 800 l 1
 62 800 l 2
112 500 m 1
 912 500 l 1
 912 0 l 1
 112 0 l 1
 112 500 l 1
EndSplineSet
EndChar

StartChar: L
Encoding: 76 76 37
Width: 1024
GlyphClass: 2
Flags: MW
HStem: -90 101<462.5 561.5 462.5 589.5> 55 100<508.5 527.5 508.5 555> 810 100<411 471.5>
VStem: 231 100<190 700 190 700 190 700> 382 100<189 251 189 560> 552 100<189 274 189 700> 692 100<190 650 190 650 190 650>
LayerCount: 2
Fore
SplineSet
441 910 m 0
 326 910 231 816 231 700 c 1
 231 700 l 1
 231 190 l 1
 232 35 357 -90 512 -90 c 0
 667 -90 792 35 793 190 c 1
 792 190 l 1
 792 650 l 2
 792 678 770 700 742 700 c 0
 714 700 692 678 692 650 c 2
 692 190 l 1
 692 190 l 1
 691 91 611 11 512 11 c 0
 413 11 332 91 331 190 c 1
 331 700 l 1
 331 700 l 1
 331 761 381 810 441 810 c 0
 502 810 552 761 552 700 c 0
 552 530 552 359 552 189 c 0
 552 170 537 155 518 155 c 0
 499 155 482 170 482 189 c 2
 482 560 l 2
 482 588 460 610 432 610 c 0
 404 610 382 588 382 560 c 0
 382 436 382 313 382 189 c 0
 382 115 444 55 518 55 c 0
 592 55 652 115 652 189 c 2
 652 700 l 2
 652 816 557 910 441 910 c 0
EndSplineSet
EndChar

StartChar: M
Encoding: 77 77 38
Width: 1024
GlyphClass: 2
Flags: MW
HStem: -94 200<429 595 429 650> 706 200<429 595>
VStem: 12 200<323 489 323 544> 812 200<323 489>
LayerCount: 2
Fore
SplineSet
512 906 m 0
 236 906 12 682 12 406 c 0
 12 130 236 -94 512 -94 c 0
 788 -94 1012 130 1012 406 c 0
 1012 682 788 906 512 906 c 0
512 706 m 0
 678 706 812 572 812 406 c 0
 812 240 678 106 512 106 c 0
 346 106 212 240 212 406 c 0
 212 572 346 706 512 706 c 0
EndSplineSet
EndChar

StartChar: N
Encoding: 78 78 39
Width: 1024
GlyphClass: 2
Flags: MW
HStem: 125 200<484.5 539.5 484.5 595> 525 200<484.5 539.5>
VStem: 212 200<397.5 452.5 397.5 508> 612 200<397.5 452.5>
LayerCount: 2
Fore
SplineSet
512 725 m 0
 346 725 212 591 212 425 c 0
 212 259 346 125 512 125 c 0
 678 125 812 259 812 425 c 0
 812 591 678 725 512 725 c 0
512 525 m 0
 567 525 612 480 612 425 c 0
 612 370 567 325 512 325 c 0
 457 325 412 370 412 425 c 0
 412 480 457 525 512 525 c 0
EndSplineSet
EndChar

StartChar: O
Encoding: 79 79 40
Width: 1024
GlyphClass: 2
Flags: MW
HStem: 106 200<485.5 540.5 485.5 589.5> 506 200<485.5 531 430 540.5>
VStem: 213 200<378.5 433.5 378.5 489>
LayerCount: 2
Fore
SplineSet
513 706 m 0
 347 706 213 572 213 406 c 0
 213 240 347 106 513 106 c 0
 666 106 792 221 811 368 c 1
 772 377 742 408 735 448 c 1
 688 456 653 497 653 546 c 0
 653 559 655 570 660 582 c 1
 632 599 613 630 613 666 c 0
 613 674 614 681 615 688 c 1
 583 700 549 706 513 706 c 0
513 506 m 0
 568 506 613 461 613 406 c 0
 613 351 568 306 513 306 c 0
 458 306 413 351 413 406 c 0
 413 461 458 506 513 506 c 0
EndSplineSet
EndChar
